<svg xmlns="http://www.w3.org/2000/svg" xmlns:xlink="http://www.w3.org/1999/xlink" width="500" zoomAndPan="magnify" viewBox="0 0 375 374.999991" height="500" preserveAspectRatio="xMidYMid meet" version="1.0"><defs><g/><clipPath id="21e21a693a"><path d="M 14.140625 8.636719 L 360.859375 8.636719 L 360.859375 366.640625 L 14.140625 366.640625 Z M 14.140625 8.636719 " clip-rule="nonzero"/></clipPath><clipPath id="9aa495f57c"><path d="M 187.5 8.636719 C 91.757812 8.636719 14.140625 88.71875 14.140625 187.5 C 14.140625 286.28125 91.757812 366.363281 187.5 366.363281 C 283.242188 366.363281 360.859375 286.28125 360.859375 187.5 C 360.859375 88.71875 283.242188 8.636719 187.5 8.636719 Z M 187.5 8.636719 " clip-rule="nonzero"/></clipPath><clipPath id="11ba0e8975"><path d="M 0.140625 0.636719 L 346.859375 0.636719 L 346.859375 358.480469 L 0.140625 358.480469 Z M 0.140625 0.636719 " clip-rule="nonzero"/></clipPath><clipPath id="81a3921bdb"><path d="M 173.5 0.636719 C 77.757812 0.636719 0.140625 80.71875 0.140625 179.5 C 0.140625 278.28125 77.757812 358.363281 173.5 358.363281 C 269.242188 358.363281 346.859375 278.28125 346.859375 179.5 C 346.859375 80.71875 269.242188 0.636719 173.5 0.636719 Z M 173.5 0.636719 " clip-rule="nonzero"/></clipPath><clipPath id="af22f31708"><rect x="0" width="347" y="0" height="359"/></clipPath><clipPath id="7554d4f10c"><rect x="0" width="324" y="0" height="71"/></clipPath><clipPath id="1dcdb8be83"><path d="M 71 92 L 287 92 L 287 158 L 71 158 Z M 71 92 " clip-rule="nonzero"/></clipPath><clipPath id="3909913b61"><path d="M 71.632812 132.0625 L 281.777344 92.957031 L 286.578125 118.761719 L 76.4375 157.867188 Z M 71.632812 132.0625 " clip-rule="nonzero"/></clipPath><clipPath id="28a4434020"><path d="M 191 21 L 204 21 L 204 29 L 191 29 Z M 191 21 " clip-rule="nonzero"/></clipPath><clipPath id="156674fc20"><path d="M 0.632812 40.0625 L 210.777344 0.957031 L 215.578125 26.761719 L 5.4375 65.867188 Z M 0.632812 40.0625 " clip-rule="nonzero"/></clipPath><clipPath id="2e238d7a90"><path d="M 5.410156 65.730469 L 215.550781 26.625 L 210.75 0.816406 L 0.609375 39.921875 Z M 5.410156 65.730469 " clip-rule="nonzero"/></clipPath><clipPath id="db5e6e9368"><path d="M 4 1 L 213 1 L 213 63 L 4 63 Z M 4 1 " clip-rule="nonzero"/></clipPath><clipPath id="446487ca8b"><path d="M 0.632812 40.0625 L 210.777344 0.957031 L 215.578125 26.761719 L 5.4375 65.867188 Z M 0.632812 40.0625 " clip-rule="nonzero"/></clipPath><clipPath id="442bd658b6"><path d="M 5.410156 65.730469 L 215.550781 26.625 L 210.75 0.816406 L 0.609375 39.921875 Z M 5.410156 65.730469 " clip-rule="nonzero"/></clipPath><clipPath id="c8e62dc589"><rect x="0" width="216" y="0" height="66"/></clipPath><clipPath id="a4e26433a5"><rect x="0" width="218" y="0" height="27"/></clipPath></defs><g clip-path="url(#21e21a693a)"><g clip-path="url(#9aa495f57c)"><g transform="matrix(1, 0, 0, 1, 14, 8)"><g clip-path="url(#af22f31708)"><g clip-path="url(#11ba0e8975)"><g clip-path="url(#81a3921bdb)"><path fill="#1a3b29" d="M 0.140625 0.636719 L 346.859375 0.636719 L 346.859375 358.328125 L 0.140625 358.328125 Z M 0.140625 0.636719 " fill-opacity="1" fill-rule="nonzero"/></g></g></g></g></g></g><g transform="matrix(1, 0, 0, 1, 30, 131)"><g clip-path="url(#7554d4f10c)"><g fill="#efe9ce" fill-opacity="1"><g transform="translate(0.229293, 52.836586)"><g><path d="M 5.265625 -10.78125 C 5.441406 -10.476562 5.585938 -10.164062 5.703125 -9.84375 C 5.816406 -9.519531 5.945312 -9.101562 6.09375 -8.59375 C 6.164062 -8.40625 6.226562 -8.195312 6.28125 -7.96875 C 6.90625 -5.914062 8.09375 -4.332031 9.84375 -3.21875 C 11.601562 -2.113281 13.609375 -1.5625 15.859375 -1.5625 C 17.035156 -1.5625 18.179688 -1.769531 19.296875 -2.1875 C 20.421875 -2.601562 21.34375 -3.234375 22.0625 -4.078125 C 22.789062 -4.929688 23.15625 -5.96875 23.15625 -7.1875 C 23.15625 -8.25 22.78125 -9.234375 22.03125 -10.140625 C 21.289062 -11.054688 20.367188 -11.875 19.265625 -12.59375 C 18.171875 -13.320312 16.660156 -14.222656 14.734375 -15.296875 C 12.460938 -16.546875 10.617188 -17.65625 9.203125 -18.625 C 7.785156 -19.59375 6.582031 -20.738281 5.59375 -22.0625 C 4.613281 -23.394531 4.125 -24.90625 4.125 -26.59375 C 4.125 -28.664062 4.707031 -30.375 5.875 -31.71875 C 7.050781 -33.070312 8.554688 -34.054688 10.390625 -34.671875 C 12.222656 -35.296875 14.160156 -35.609375 16.203125 -35.609375 C 17.960938 -35.609375 19.710938 -35.390625 21.453125 -34.953125 C 23.191406 -34.523438 24.851562 -33.910156 26.4375 -33.109375 L 26.78125 -25.46875 L 25.109375 -25.46875 C 24.898438 -25.875 24.648438 -26.523438 24.359375 -27.421875 L 24.09375 -28.203125 C 23.488281 -29.953125 22.4375 -31.28125 20.9375 -32.1875 C 19.445312 -33.09375 17.726562 -33.546875 15.78125 -33.546875 C 14.78125 -33.546875 13.769531 -33.375 12.75 -33.03125 C 11.726562 -32.6875 10.875 -32.160156 10.1875 -31.453125 C 9.5 -30.753906 9.15625 -29.882812 9.15625 -28.84375 C 9.15625 -27.875 9.507812 -26.96875 10.21875 -26.125 C 10.9375 -25.289062 11.820312 -24.53125 12.875 -23.84375 C 13.9375 -23.15625 15.394531 -22.289062 17.25 -21.25 C 19.632812 -19.925781 21.5625 -18.757812 23.03125 -17.75 C 24.507812 -16.738281 25.769531 -15.515625 26.8125 -14.078125 C 27.863281 -12.648438 28.390625 -11.035156 28.390625 -9.234375 C 28.390625 -6.992188 27.769531 -5.125 26.53125 -3.625 C 25.300781 -2.132812 23.707031 -1.039062 21.75 -0.34375 C 19.789062 0.351562 17.710938 0.703125 15.515625 0.703125 C 13.546875 0.703125 11.425781 0.457031 9.15625 -0.03125 C 6.894531 -0.53125 5.066406 -1.207031 3.671875 -2.0625 L 3.671875 -10.734375 Z M 5.265625 -10.78125 "/></g></g></g><g fill="#efe9ce" fill-opacity="1"><g transform="translate(40.054866, 52.836586)"><g><path d="M 21.578125 -35.609375 C 24.941406 -35.609375 28.023438 -34.851562 30.828125 -33.34375 C 33.640625 -31.84375 35.867188 -29.710938 37.515625 -26.953125 C 39.171875 -24.191406 40 -21.003906 40 -17.390625 C 40 -13.847656 39.144531 -10.703125 37.4375 -7.953125 C 35.726562 -5.210938 33.425781 -3.082031 30.53125 -1.5625 C 27.632812 -0.0507812 24.46875 0.703125 21.03125 0.703125 C 17.863281 0.703125 14.898438 -0.0195312 12.140625 -1.46875 C 9.390625 -2.925781 7.175781 -5.003906 5.5 -7.703125 C 3.832031 -10.398438 3 -13.53125 3 -17.09375 C 3 -21.007812 3.878906 -24.363281 5.640625 -27.15625 C 7.410156 -29.945312 9.710938 -32.050781 12.546875 -33.46875 C 15.378906 -34.894531 18.390625 -35.609375 21.578125 -35.609375 Z M 22.453125 -1.375 C 24.597656 -1.375 26.53125 -1.941406 28.25 -3.078125 C 29.96875 -4.222656 31.3125 -5.878906 32.28125 -8.046875 C 33.257812 -10.210938 33.75 -12.765625 33.75 -15.703125 C 33.75 -19.023438 33.191406 -22.039062 32.078125 -24.75 C 30.972656 -27.457031 29.421875 -29.597656 27.421875 -31.171875 C 25.429688 -32.753906 23.171875 -33.546875 20.640625 -33.546875 C 18.546875 -33.546875 16.632812 -33.003906 14.90625 -31.921875 C 13.175781 -30.835938 11.800781 -29.222656 10.78125 -27.078125 C 9.757812 -24.929688 9.25 -22.34375 9.25 -19.3125 C 9.25 -15.957031 9.8125 -12.910156 10.9375 -10.171875 C 12.070312 -7.429688 13.644531 -5.28125 15.65625 -3.71875 C 17.664062 -2.15625 19.929688 -1.375 22.453125 -1.375 Z M 22.453125 -1.375 "/></g></g></g><g fill="#efe9ce" fill-opacity="1"><g transform="translate(91.577243, 52.836586)"><g><path d="M 8.015625 -27.75 C 8.015625 -29.195312 7.898438 -30.253906 7.671875 -30.921875 C 7.441406 -31.597656 7.101562 -32.050781 6.65625 -32.28125 C 6.207031 -32.507812 5.484375 -32.722656 4.484375 -32.921875 C 3.265625 -33.191406 2.382812 -33.40625 1.84375 -33.5625 L 1.90625 -34.9375 L 20.046875 -34.9375 L 20.046875 -33.546875 C 19.523438 -33.328125 19.054688 -33.164062 18.640625 -33.0625 C 18.234375 -32.96875 17.691406 -32.859375 17.015625 -32.734375 C 16.148438 -32.585938 15.507812 -32.410156 15.09375 -32.203125 C 14.6875 -32.003906 14.367188 -31.582031 14.140625 -30.9375 C 13.921875 -30.289062 13.8125 -29.28125 13.8125 -27.90625 L 13.8125 -8.375 C 13.8125 -6.207031 14.019531 -4.707031 14.4375 -3.875 C 14.863281 -3.039062 15.65625 -2.515625 16.8125 -2.296875 C 17.976562 -2.085938 20.109375 -1.984375 23.203125 -1.984375 C 25.171875 -1.984375 26.832031 -2.238281 28.1875 -2.75 C 29.539062 -3.257812 30.617188 -4.285156 31.421875 -5.828125 L 31.828125 -6.625 C 32.109375 -7.21875 32.363281 -7.710938 32.59375 -8.109375 C 32.832031 -8.515625 33.101562 -8.890625 33.40625 -9.234375 L 35.015625 -9.171875 L 33.328125 0.296875 C 30.929688 0.0976562 28.972656 0 27.453125 0 L 1.875 0 L 1.828125 -1.453125 C 2.097656 -1.535156 2.671875 -1.703125 3.546875 -1.953125 C 4.566406 -2.222656 5.367188 -2.488281 5.953125 -2.75 C 6.546875 -3.007812 7.035156 -3.429688 7.421875 -4.015625 C 7.816406 -4.597656 8.015625 -5.40625 8.015625 -6.4375 Z M 8.015625 -27.75 "/></g></g></g><g fill="#efe9ce" fill-opacity="1"><g transform="translate(134.863568, 52.836586)"><g><path d="M 33.359375 0.234375 C 33.066406 0.296875 32.78125 0.328125 32.5 0.328125 C 32.15625 0.328125 31.644531 0.269531 30.96875 0.15625 C 30.28125 0.0507812 29.757812 0 29.40625 0 L 1.875 0 L 1.828125 -1.3125 C 2.378906 -1.613281 2.890625 -1.832031 3.359375 -1.96875 C 3.835938 -2.101562 4.363281 -2.21875 4.9375 -2.3125 C 5.65625 -2.4375 6.175781 -2.59375 6.5 -2.78125 C 6.832031 -2.976562 7.085938 -3.40625 7.265625 -4.0625 C 7.453125 -4.71875 7.546875 -5.753906 7.546875 -7.171875 L 7.546875 -27.484375 C 7.546875 -28.867188 7.429688 -29.894531 7.203125 -30.5625 C 6.984375 -31.226562 6.65625 -31.6875 6.21875 -31.9375 C 5.789062 -32.195312 5.078125 -32.484375 4.078125 -32.796875 C 3.921875 -32.847656 3.613281 -32.941406 3.15625 -33.078125 C 2.695312 -33.222656 2.253906 -33.382812 1.828125 -33.5625 L 1.875 -34.9375 L 29.25 -34.9375 C 29.5 -34.9375 29.769531 -34.953125 30.0625 -34.984375 C 30.363281 -35.023438 30.578125 -35.050781 30.703125 -35.0625 C 31.234375 -35.15625 31.710938 -35.203125 32.140625 -35.203125 C 32.515625 -35.203125 32.847656 -35.164062 33.140625 -35.09375 L 33.140625 -26.75 L 31.75 -26.703125 C 31.4375 -27.003906 31.179688 -27.34375 30.984375 -27.71875 C 30.796875 -28.09375 30.578125 -28.582031 30.328125 -29.1875 C 29.960938 -30.082031 29.601562 -30.78125 29.25 -31.28125 C 28.90625 -31.78125 28.394531 -32.148438 27.71875 -32.390625 C 26.71875 -32.710938 25.472656 -32.914062 23.984375 -33 C 22.503906 -33.09375 20.789062 -33.140625 18.84375 -33.140625 C 16.550781 -33.140625 14.742188 -33.054688 13.421875 -32.890625 C 13.347656 -32.085938 13.3125 -31.171875 13.3125 -30.140625 L 13.3125 -19.234375 L 21.03125 -19.234375 C 22.445312 -19.234375 23.503906 -19.34375 24.203125 -19.5625 C 24.898438 -19.78125 25.441406 -20.128906 25.828125 -20.609375 C 26.210938 -21.085938 26.742188 -21.945312 27.421875 -23.1875 L 27.828125 -23.90625 L 29.359375 -23.90625 L 29.359375 -12.390625 L 27.828125 -12.3125 C 27.253906 -13.851562 26.523438 -15.050781 25.640625 -15.90625 C 24.753906 -16.769531 23.566406 -17.203125 22.078125 -17.203125 L 13.3125 -17.203125 L 13.3125 -8.15625 C 13.3125 -6.28125 13.53125 -4.894531 13.96875 -4 C 14.40625 -3.101562 15.039062 -2.523438 15.875 -2.265625 C 16.707031 -2.003906 17.890625 -1.875 19.421875 -1.875 L 22.0625 -1.875 C 24.3125 -1.875 26.253906 -2.128906 27.890625 -2.640625 C 29.523438 -3.148438 30.738281 -4.191406 31.53125 -5.765625 L 31.90625 -6.59375 C 32.226562 -7.289062 32.488281 -7.8125 32.6875 -8.15625 C 32.882812 -8.507812 33.132812 -8.847656 33.4375 -9.171875 L 35.125 -9.171875 Z M 33.359375 0.234375 "/></g></g></g><g fill="#efe9ce" fill-opacity="1"><g transform="translate(180.56437, 52.836586)"><g><path d="M 8.671875 -29.28125 C 8.203125 -30.03125 7.71875 -30.628906 7.21875 -31.078125 C 6.71875 -31.523438 6.21875 -31.863281 5.71875 -32.09375 C 5.21875 -32.320312 4.546875 -32.582031 3.703125 -32.875 C 2.898438 -33.132812 2.273438 -33.359375 1.828125 -33.546875 L 1.828125 -34.9375 L 11.1875 -34.9375 L 36.4375 -8.828125 L 36.4375 -25.703125 C 36.4375 -27.398438 36.195312 -28.945312 35.71875 -30.34375 C 35.519531 -30.914062 35.25 -31.363281 34.90625 -31.6875 C 34.570312 -32.007812 34.207031 -32.242188 33.8125 -32.390625 C 33.414062 -32.535156 32.882812 -32.6875 32.21875 -32.84375 C 32.113281 -32.875 31.84375 -32.945312 31.40625 -33.0625 C 30.96875 -33.1875 30.570312 -33.335938 30.21875 -33.515625 C 30.21875 -33.984375 30.242188 -34.457031 30.296875 -34.9375 L 44.4375 -34.9375 L 44.4375 -33.484375 C 43.9375 -33.253906 43.414062 -33.03125 42.875 -32.8125 C 41.570312 -32.238281 40.671875 -31.765625 40.171875 -31.390625 C 39.671875 -31.015625 39.316406 -30.425781 39.109375 -29.625 C 38.898438 -28.832031 38.785156 -27.535156 38.765625 -25.734375 C 38.765625 -24.816406 38.75 -23.46875 38.71875 -21.6875 C 38.695312 -20.320312 38.675781 -18.625 38.65625 -16.59375 C 38.644531 -14.5625 38.640625 -12.1875 38.640625 -9.46875 C 38.640625 -8.289062 38.742188 -6.539062 38.953125 -4.21875 C 39.140625 -2.25 39.238281 -0.765625 39.25 0.234375 C 38.914062 0.359375 38.476562 0.421875 37.9375 0.421875 C 37.363281 0.421875 36.851562 0.359375 36.40625 0.234375 C 35.125 -1.335938 33.660156 -3.007812 32.015625 -4.78125 L 10.8125 -27.078125 L 10.8125 -8.234375 C 10.8125 -7.035156 10.960938 -5.828125 11.265625 -4.609375 C 11.410156 -4.003906 11.671875 -3.535156 12.046875 -3.203125 C 12.421875 -2.867188 12.828125 -2.628906 13.265625 -2.484375 C 13.703125 -2.347656 14.296875 -2.207031 15.046875 -2.0625 C 16.085938 -1.90625 16.859375 -1.691406 17.359375 -1.421875 C 17.359375 -0.953125 17.332031 -0.476562 17.28125 0 L 2.140625 0 C 2.109375 -0.320312 2.09375 -0.804688 2.09375 -1.453125 L 3.328125 -1.765625 C 4.472656 -2.054688 5.378906 -2.332031 6.046875 -2.59375 C 6.722656 -2.863281 7.304688 -3.300781 7.796875 -3.90625 C 8.285156 -4.519531 8.578125 -5.351562 8.671875 -6.40625 Z M 8.671875 -29.28125 "/></g></g></g><g fill="#efe9ce" fill-opacity="1"><g transform="translate(235.332878, 52.836586)"><g><path d="M 35.53125 -33.359375 C 34.507812 -32.941406 33.6875 -32.570312 33.0625 -32.25 C 32.4375 -31.925781 31.820312 -31.515625 31.21875 -31.015625 C 30.625 -30.515625 30.082031 -29.890625 29.59375 -29.140625 L 20.796875 -15.640625 L 20.796875 -6.59375 C 20.796875 -5.363281 20.910156 -4.453125 21.140625 -3.859375 C 21.378906 -3.273438 21.695312 -2.882812 22.09375 -2.6875 C 22.5 -2.488281 23.09375 -2.316406 23.875 -2.171875 C 24.9375 -1.992188 25.851562 -1.734375 26.625 -1.390625 L 26.5625 0 L 9.234375 0 L 9.171875 -1.390625 C 9.640625 -1.660156 10.082031 -1.847656 10.5 -1.953125 C 10.925781 -2.066406 11.453125 -2.164062 12.078125 -2.25 C 12.828125 -2.363281 13.390625 -2.507812 13.765625 -2.6875 C 14.140625 -2.863281 14.441406 -3.265625 14.671875 -3.890625 C 14.910156 -4.515625 15.03125 -5.488281 15.03125 -6.8125 L 15.03125 -15.078125 L 5.234375 -30.421875 C 4.816406 -31.066406 4.046875 -31.703125 2.921875 -32.328125 C 1.796875 -32.953125 0.804688 -33.363281 -0.046875 -33.5625 L -0.046875 -34.9375 L 16.578125 -34.9375 L 16.640625 -33.546875 C 15.597656 -33.359375 14.613281 -33.023438 13.6875 -32.546875 C 12.769531 -32.078125 12.3125 -31.441406 12.3125 -30.640625 C 12.3125 -30.066406 12.898438 -28.828125 14.078125 -26.921875 C 15.265625 -25.015625 16.804688 -22.640625 18.703125 -19.796875 L 19.96875 -17.890625 C 20.070312 -18.085938 20.320312 -18.46875 20.71875 -19.03125 C 24.863281 -25.164062 26.9375 -29.019531 26.9375 -30.59375 C 26.9375 -31.300781 26.585938 -31.847656 25.890625 -32.234375 C 25.191406 -32.617188 24.289062 -32.957031 23.1875 -33.25 C 23.144531 -33.25 22.921875 -33.3125 22.515625 -33.4375 L 22.453125 -34.15625 C 22.453125 -34.28125 22.472656 -34.539062 22.515625 -34.9375 L 35.984375 -34.9375 L 35.984375 -33.546875 Z M 35.53125 -33.359375 "/></g></g></g><g fill="#efe9ce" fill-opacity="1"><g transform="translate(277.84079, 52.836586)"><g><path d="M 10.625 -14.28125 L 10.109375 -12.984375 C 9.304688 -10.890625 8.671875 -9.164062 8.203125 -7.8125 C 7.742188 -6.46875 7.515625 -5.429688 7.515625 -4.703125 C 7.515625 -4.054688 7.75 -3.523438 8.21875 -3.109375 C 8.695312 -2.703125 9.242188 -2.398438 9.859375 -2.203125 C 10.472656 -2.003906 11.226562 -1.816406 12.125 -1.640625 L 12.640625 -1.53125 L 12.640625 0 L -0.03125 0 L -0.03125 -1.390625 C 0.21875 -1.585938 0.472656 -1.753906 0.734375 -1.890625 C 0.992188 -2.023438 1.320312 -2.171875 1.71875 -2.328125 C 2.34375 -2.578125 2.847656 -2.835938 3.234375 -3.109375 C 3.617188 -3.378906 3.960938 -3.800781 4.265625 -4.375 C 4.441406 -4.726562 4.625 -5.132812 4.8125 -5.59375 C 5 -6.050781 5.117188 -6.351562 5.171875 -6.5 L 5.5 -7.328125 L 15.53125 -33.03125 C 15.601562 -33.226562 15.660156 -33.566406 15.703125 -34.046875 C 15.710938 -34.410156 15.738281 -34.703125 15.78125 -34.921875 C 15.832031 -35.148438 15.921875 -35.351562 16.046875 -35.53125 C 16.921875 -35.53125 17.675781 -35.4375 18.3125 -35.25 C 18.945312 -35.070312 19.585938 -34.742188 20.234375 -34.265625 L 32.546875 -4.71875 C 32.773438 -4.164062 33.039062 -3.722656 33.34375 -3.390625 C 33.65625 -3.054688 33.972656 -2.804688 34.296875 -2.640625 C 34.628906 -2.472656 35.082031 -2.273438 35.65625 -2.046875 C 36.144531 -1.878906 36.65625 -1.660156 37.1875 -1.390625 L 37.140625 0 L 21.515625 0 L 21.46875 -1.390625 C 22.3125 -1.640625 23.03125 -1.890625 23.625 -2.140625 C 24.226562 -2.390625 24.769531 -2.738281 25.25 -3.1875 C 25.726562 -3.632812 25.96875 -4.179688 25.96875 -4.828125 C 25.96875 -5.546875 25.078125 -8.203125 23.296875 -12.796875 C 23.179688 -13.066406 23.070312 -13.328125 22.96875 -13.578125 C 22.875 -13.828125 22.796875 -14.0625 22.734375 -14.28125 Z M 16.453125 -29.84375 L 11.53125 -16.640625 L 21.734375 -16.640625 Z M 16.453125 -29.84375 "/></g></g></g></g></g><g clip-path="url(#1dcdb8be83)"><g clip-path="url(#3909913b61)"><g transform="matrix(1, 0, 0, 1, 71, 92)"><g clip-path="url(#c8e62dc589)"><g clip-path="url(#28a4434020)"><g clip-path="url(#156674fc20)"><g clip-path="url(#2e238d7a90)"><path fill="#f9f5f1" d="M 201.523438 21.3125 C 198.996094 21.5625 196.519531 22.28125 194.160156 23.226562 C 193.367188 23.5 192.605469 23.851562 191.863281 24.234375 C 191.597656 24.335938 190.871094 24.664062 191.421875 24.925781 C 191.945312 25.035156 192.480469 25.128906 192.984375 25.320312 C 193.726562 25.621094 194.335938 26.195312 194.972656 26.617188 C 196.046875 27.246094 197.011719 28.0625 198.140625 28.578125 C 199.132812 28.898438 201.125 29.238281 201.167969 27.730469 C 200.941406 26.386719 199.671875 25.601562 198.574219 24.992188 C 200.164062 24.628906 201.910156 24.433594 203.203125 23.378906 C 203.664062 22.996094 203.988281 22.183594 203.535156 21.6875 C 203.011719 21.230469 202.195312 21.289062 201.523438 21.3125 Z M 201.523438 21.3125 " fill-opacity="1" fill-rule="nonzero"/></g></g></g><g clip-path="url(#db5e6e9368)"><g clip-path="url(#446487ca8b)"><g clip-path="url(#442bd658b6)"><path fill="#f9f5f1" d="M 208.132812 3.5 C 207.96875 2.285156 206.613281 1.660156 205.539062 2.144531 C 204.15625 2.777344 203.046875 3.902344 202.035156 5.007812 C 198.152344 9.519531 195.382812 14.992188 191.113281 19.171875 C 190.808594 19.410156 190.503906 19.636719 190.183594 19.878906 C 187.070312 22.125 183.679688 23.855469 180.304688 25.660156 C 176.367188 27.714844 172.480469 29.898438 168.308594 31.464844 C 161.007812 34.21875 153.207031 35.890625 145.574219 37.273438 C 139.726562 38.320312 133.84375 39.222656 127.929688 39.84375 C 117.128906 40.960938 106.230469 40.789062 95.378906 41.066406 C 83.355469 41.308594 71.304688 41.121094 59.3125 42.03125 C 48.539062 43.210938 37.78125 45.1875 27.496094 48.664062 C 22.921875 50.203125 18.820312 52.777344 14.714844 55.246094 C 11.539062 56.953125 8.574219 58.953125 5.777344 61.230469 C 5.492188 61.441406 5.195312 61.664062 4.914062 61.882812 C 4.742188 62.007812 4.710938 62.257812 4.835938 62.429688 C 4.96875 62.597656 5.210938 62.644531 5.390625 62.507812 C 7.109375 61.230469 8.976562 59.9375 10.71875 58.734375 C 12.671875 57.476562 14.746094 56.457031 16.734375 55.273438 C 19.753906 53.417969 22.835938 51.628906 26.136719 50.316406 C 35.90625 46.660156 46.234375 44.738281 56.535156 43.363281 C 65.910156 42.242188 75.371094 42.394531 84.785156 42.246094 C 98.613281 41.964844 112.480469 42.320312 126.261719 41.175781 C 134.078125 40.421875 141.832031 39.199219 149.535156 37.710938 C 155.414062 36.554688 161.269531 35.207031 166.917969 33.171875 C 172.449219 31.261719 177.492188 28.265625 182.597656 25.46875 C 184.820312 24.199219 187.058594 22.957031 189.152344 21.492188 C 189.953125 20.929688 190.734375 20.320312 191.496094 19.699219 C 194.984375 18.621094 198.230469 17.304688 201.683594 16.054688 C 203.511719 15.367188 205.136719 14.457031 206.910156 13.6875 C 208.808594 12.632812 211.417969 11.28125 212.085938 9.101562 C 212.308594 8.503906 212.019531 7.847656 211.566406 7.425781 C 210.175781 6.222656 207.730469 7.246094 206.335938 8.023438 C 207.300781 6.757812 208.371094 5.136719 208.132812 3.5 Z M 208.132812 3.5 " fill-opacity="1" fill-rule="nonzero"/></g></g></g></g></g></g></g><g transform="matrix(1, 0, 0, 1, 80, 213)"><g clip-path="url(#a4e26433a5)"><g fill="#efe9ce" fill-opacity="1"><g transform="translate(0.848165, 19.84117)"><g><path d="M 12.703125 -9.390625 C 12.617188 -9.472656 12.523438 -9.59375 12.421875 -9.75 C 12.328125 -9.90625 12.234375 -10.066406 12.140625 -10.234375 C 12.117188 -10.265625 12.0625 -10.351562 11.96875 -10.5 C 11.882812 -10.644531 11.804688 -10.769531 11.734375 -10.875 C 11.660156 -10.976562 11.59375 -11.066406 11.53125 -11.140625 C 11.082031 -11.585938 10.585938 -11.921875 10.046875 -12.140625 C 9.503906 -12.359375 8.9375 -12.46875 8.34375 -12.46875 C 7.476562 -12.46875 6.671875 -12.242188 5.921875 -11.796875 C 5.171875 -11.347656 4.570312 -10.691406 4.125 -9.828125 C 3.675781 -8.972656 3.453125 -7.957031 3.453125 -6.78125 C 3.453125 -5.570312 3.664062 -4.519531 4.09375 -3.625 C 4.53125 -2.726562 5.148438 -2.035156 5.953125 -1.546875 C 6.753906 -1.054688 7.6875 -0.8125 8.75 -0.8125 C 9.65625 -0.8125 10.457031 -1 11.15625 -1.375 C 11.863281 -1.75 12.410156 -2.300781 12.796875 -3.03125 L 13.28125 -2.96875 L 13.1875 -1.078125 C 12.46875 -0.671875 11.632812 -0.34375 10.6875 -0.09375 C 9.738281 0.144531 8.851562 0.265625 8.03125 0.265625 C 6.726562 0.265625 5.550781 -0.00390625 4.5 -0.546875 C 3.457031 -1.085938 2.628906 -1.859375 2.015625 -2.859375 C 1.410156 -3.867188 1.109375 -5.039062 1.109375 -6.375 C 1.109375 -7.644531 1.414062 -8.800781 2.03125 -9.84375 C 2.65625 -10.894531 3.535156 -11.722656 4.671875 -12.328125 C 5.804688 -12.929688 7.117188 -13.234375 8.609375 -13.234375 C 9.972656 -13.234375 11.359375 -12.960938 12.765625 -12.421875 L 13.171875 -9.40625 Z M 12.703125 -9.390625 "/></g></g></g><g fill="#efe9ce" fill-opacity="1"><g transform="translate(18.228908, 19.84117)"><g><path d="M 11.78125 -2.359375 C 12.1875 -1.828125 12.507812 -1.457031 12.75 -1.25 C 12.988281 -1.039062 13.300781 -0.882812 13.6875 -0.78125 C 13.851562 -0.726562 13.960938 -0.691406 14.015625 -0.671875 C 14.328125 -0.597656 14.515625 -0.546875 14.578125 -0.515625 C 14.578125 -0.421875 14.570312 -0.25 14.5625 0 L 8.0625 0 C 8.039062 -0.113281 8.03125 -0.285156 8.03125 -0.515625 C 9.070312 -0.753906 9.59375 -1.101562 9.59375 -1.5625 C 9.59375 -1.644531 9.578125 -1.742188 9.546875 -1.859375 C 9.515625 -1.972656 9.460938 -2.070312 9.390625 -2.15625 L 6.765625 -5.640625 L 4.546875 -2.9375 C 4.328125 -2.664062 4.140625 -2.390625 3.984375 -2.109375 C 3.835938 -1.835938 3.765625 -1.613281 3.765625 -1.4375 C 3.765625 -1.207031 3.90625 -1.03125 4.1875 -0.90625 C 4.476562 -0.78125 4.878906 -0.664062 5.390625 -0.5625 C 5.398438 -0.507812 5.40625 -0.421875 5.40625 -0.296875 C 5.40625 -0.171875 5.398438 -0.0703125 5.390625 0 L 0.203125 0 C 0.179688 -0.113281 0.171875 -0.285156 0.171875 -0.515625 L 0.59375 -0.65625 C 1 -0.78125 1.351562 -0.914062 1.65625 -1.0625 C 1.957031 -1.207031 2.21875 -1.398438 2.4375 -1.640625 C 2.613281 -1.835938 2.863281 -2.128906 3.1875 -2.515625 L 6.296875 -6.265625 L 2.71875 -10.9375 C 2.425781 -11.332031 2.113281 -11.617188 1.78125 -11.796875 C 1.445312 -11.984375 1.054688 -12.144531 0.609375 -12.28125 C 0.554688 -12.300781 0.492188 -12.320312 0.421875 -12.34375 C 0.359375 -12.363281 0.285156 -12.390625 0.203125 -12.421875 C 0.203125 -12.640625 0.210938 -12.828125 0.234375 -12.984375 L 6.625 -12.984375 C 6.644531 -12.753906 6.65625 -12.582031 6.65625 -12.46875 C 6.21875 -12.375 5.847656 -12.234375 5.546875 -12.046875 C 5.253906 -11.867188 5.109375 -11.65625 5.109375 -11.40625 C 5.109375 -11.34375 5.125 -11.269531 5.15625 -11.1875 C 5.1875 -11.101562 5.226562 -11.015625 5.28125 -10.921875 L 7.59375 -7.859375 L 9.421875 -10.109375 C 9.671875 -10.429688 9.835938 -10.660156 9.921875 -10.796875 C 10.003906 -10.941406 10.046875 -11.097656 10.046875 -11.265625 C 10.046875 -11.535156 9.910156 -11.773438 9.640625 -11.984375 C 9.378906 -12.191406 9.023438 -12.335938 8.578125 -12.421875 C 8.566406 -12.472656 8.5625 -12.5625 8.5625 -12.6875 C 8.5625 -12.8125 8.566406 -12.910156 8.578125 -12.984375 L 13.703125 -12.984375 C 13.710938 -12.867188 13.71875 -12.695312 13.71875 -12.46875 C 13.625 -12.4375 13.507812 -12.398438 13.375 -12.359375 C 12.945312 -12.210938 12.5625 -12.054688 12.21875 -11.890625 C 11.882812 -11.734375 11.585938 -11.515625 11.328125 -11.234375 C 11.023438 -10.910156 10.75 -10.585938 10.5 -10.265625 L 8.09375 -7.234375 Z M 11.78125 -2.359375 "/></g></g></g><g fill="#efe9ce" fill-opacity="1"><g transform="translate(35.978494, 19.84117)"><g/></g></g><g fill="#efe9ce" fill-opacity="1"><g transform="translate(43.928843, 19.84117)"><g><path d="M 12.703125 -9.390625 C 12.617188 -9.472656 12.523438 -9.59375 12.421875 -9.75 C 12.328125 -9.90625 12.234375 -10.066406 12.140625 -10.234375 C 12.117188 -10.265625 12.0625 -10.351562 11.96875 -10.5 C 11.882812 -10.644531 11.804688 -10.769531 11.734375 -10.875 C 11.660156 -10.976562 11.59375 -11.066406 11.53125 -11.140625 C 11.082031 -11.585938 10.585938 -11.921875 10.046875 -12.140625 C 9.503906 -12.359375 8.9375 -12.46875 8.34375 -12.46875 C 7.476562 -12.46875 6.671875 -12.242188 5.921875 -11.796875 C 5.171875 -11.347656 4.570312 -10.691406 4.125 -9.828125 C 3.675781 -8.972656 3.453125 -7.957031 3.453125 -6.78125 C 3.453125 -5.570312 3.664062 -4.519531 4.09375 -3.625 C 4.53125 -2.726562 5.148438 -2.035156 5.953125 -1.546875 C 6.753906 -1.054688 7.6875 -0.8125 8.75 -0.8125 C 9.65625 -0.8125 10.457031 -1 11.15625 -1.375 C 11.863281 -1.75 12.410156 -2.300781 12.796875 -3.03125 L 13.28125 -2.96875 L 13.1875 -1.078125 C 12.46875 -0.671875 11.632812 -0.34375 10.6875 -0.09375 C 9.738281 0.144531 8.851562 0.265625 8.03125 0.265625 C 6.726562 0.265625 5.550781 -0.00390625 4.5 -0.546875 C 3.457031 -1.085938 2.628906 -1.859375 2.015625 -2.859375 C 1.410156 -3.867188 1.109375 -5.039062 1.109375 -6.375 C 1.109375 -7.644531 1.414062 -8.800781 2.03125 -9.84375 C 2.65625 -10.894531 3.535156 -11.722656 4.671875 -12.328125 C 5.804688 -12.929688 7.117188 -13.234375 8.609375 -13.234375 C 9.972656 -13.234375 11.359375 -12.960938 12.765625 -12.421875 L 13.171875 -9.40625 Z M 12.703125 -9.390625 "/></g></g></g><g fill="#efe9ce" fill-opacity="1"><g transform="translate(61.309586, 19.84117)"><g><path d="M 8.015625 -13.234375 C 9.265625 -13.234375 10.410156 -12.953125 11.453125 -12.390625 C 12.492188 -11.835938 13.320312 -11.046875 13.9375 -10.015625 C 14.5625 -8.984375 14.875 -7.800781 14.875 -6.46875 C 14.875 -5.144531 14.554688 -3.972656 13.921875 -2.953125 C 13.285156 -1.929688 12.425781 -1.140625 11.34375 -0.578125 C 10.269531 -0.015625 9.09375 0.265625 7.8125 0.265625 C 6.632812 0.265625 5.535156 -0.00390625 4.515625 -0.546875 C 3.492188 -1.085938 2.671875 -1.859375 2.046875 -2.859375 C 1.421875 -3.867188 1.109375 -5.035156 1.109375 -6.359375 C 1.109375 -7.804688 1.4375 -9.046875 2.09375 -10.078125 C 2.75 -11.117188 3.601562 -11.90625 4.65625 -12.4375 C 5.71875 -12.96875 6.835938 -13.234375 8.015625 -13.234375 Z M 8.34375 -0.515625 C 9.144531 -0.515625 9.863281 -0.722656 10.5 -1.140625 C 11.132812 -1.566406 11.632812 -2.179688 12 -2.984375 C 12.363281 -3.796875 12.546875 -4.742188 12.546875 -5.828125 C 12.546875 -7.066406 12.335938 -8.1875 11.921875 -9.1875 C 11.515625 -10.195312 10.9375 -10.992188 10.1875 -11.578125 C 9.445312 -12.171875 8.609375 -12.46875 7.671875 -12.46875 C 6.890625 -12.46875 6.175781 -12.265625 5.53125 -11.859375 C 4.894531 -11.460938 4.382812 -10.863281 4 -10.0625 C 3.625 -9.257812 3.4375 -8.296875 3.4375 -7.171875 C 3.4375 -5.929688 3.644531 -4.800781 4.0625 -3.78125 C 4.488281 -2.757812 5.070312 -1.957031 5.8125 -1.375 C 6.5625 -0.800781 7.40625 -0.515625 8.34375 -0.515625 Z M 8.34375 -0.515625 "/></g></g></g><g fill="#efe9ce" fill-opacity="1"><g transform="translate(80.454787, 19.84117)"><g><path d="M 3.21875 -10.875 C 3.050781 -11.15625 2.875 -11.378906 2.6875 -11.546875 C 2.5 -11.710938 2.3125 -11.835938 2.125 -11.921875 C 1.9375 -12.015625 1.6875 -12.113281 1.375 -12.21875 C 1.070312 -12.3125 0.835938 -12.394531 0.671875 -12.46875 L 0.671875 -12.984375 L 4.15625 -12.984375 L 13.546875 -3.28125 L 13.546875 -9.546875 C 13.546875 -10.179688 13.453125 -10.757812 13.265625 -11.28125 C 13.191406 -11.488281 13.09375 -11.648438 12.96875 -11.765625 C 12.84375 -11.890625 12.707031 -11.976562 12.5625 -12.03125 C 12.414062 -12.082031 12.21875 -12.140625 11.96875 -12.203125 C 11.9375 -12.210938 11.835938 -12.238281 11.671875 -12.28125 C 11.503906 -12.332031 11.359375 -12.390625 11.234375 -12.453125 C 11.234375 -12.628906 11.242188 -12.804688 11.265625 -12.984375 L 16.515625 -12.984375 L 16.515625 -12.4375 C 16.328125 -12.351562 16.132812 -12.269531 15.9375 -12.1875 C 15.445312 -11.976562 15.109375 -11.800781 14.921875 -11.65625 C 14.734375 -11.519531 14.601562 -11.300781 14.53125 -11 C 14.457031 -10.707031 14.414062 -10.226562 14.40625 -9.5625 C 14.40625 -9.21875 14.398438 -8.71875 14.390625 -8.0625 C 14.378906 -7.550781 14.367188 -6.914062 14.359375 -6.15625 C 14.359375 -5.40625 14.359375 -4.523438 14.359375 -3.515625 C 14.359375 -3.078125 14.398438 -2.425781 14.484375 -1.5625 C 14.546875 -0.832031 14.582031 -0.28125 14.59375 0.09375 C 14.46875 0.132812 14.300781 0.15625 14.09375 0.15625 C 13.882812 0.15625 13.695312 0.132812 13.53125 0.09375 C 13.050781 -0.488281 12.503906 -1.113281 11.890625 -1.78125 L 4.015625 -10.0625 L 4.015625 -3.0625 C 4.015625 -2.613281 4.070312 -2.164062 4.1875 -1.71875 C 4.238281 -1.488281 4.332031 -1.3125 4.46875 -1.1875 C 4.613281 -1.0625 4.765625 -0.972656 4.921875 -0.921875 C 5.085938 -0.867188 5.3125 -0.816406 5.59375 -0.765625 C 5.976562 -0.703125 6.265625 -0.625 6.453125 -0.53125 C 6.453125 -0.351562 6.441406 -0.175781 6.421875 0 L 0.796875 0 C 0.785156 -0.113281 0.78125 -0.289062 0.78125 -0.53125 L 1.234375 -0.65625 C 1.660156 -0.757812 2 -0.859375 2.25 -0.953125 C 2.5 -1.054688 2.710938 -1.222656 2.890625 -1.453125 C 3.078125 -1.679688 3.1875 -1.992188 3.21875 -2.390625 Z M 3.21875 -10.875 "/></g></g></g><g fill="#efe9ce" fill-opacity="1"><g transform="translate(100.806207, 19.84117)"><g><path d="M 1.953125 -4.015625 C 2.015625 -3.898438 2.066406 -3.78125 2.109375 -3.65625 C 2.160156 -3.539062 2.210938 -3.382812 2.265625 -3.1875 C 2.285156 -3.125 2.304688 -3.050781 2.328125 -2.96875 C 2.566406 -2.195312 3.007812 -1.601562 3.65625 -1.1875 C 4.3125 -0.78125 5.054688 -0.578125 5.890625 -0.578125 C 6.328125 -0.578125 6.753906 -0.65625 7.171875 -0.8125 C 7.585938 -0.96875 7.929688 -1.203125 8.203125 -1.515625 C 8.472656 -1.835938 8.609375 -2.222656 8.609375 -2.671875 C 8.609375 -3.066406 8.46875 -3.429688 8.1875 -3.765625 C 7.914062 -4.109375 7.570312 -4.410156 7.15625 -4.671875 C 6.75 -4.941406 6.1875 -5.28125 5.46875 -5.6875 C 4.625 -6.144531 3.9375 -6.550781 3.40625 -6.90625 C 2.882812 -7.269531 2.441406 -7.695312 2.078125 -8.1875 C 1.710938 -8.6875 1.53125 -9.25 1.53125 -9.875 C 1.53125 -10.644531 1.75 -11.28125 2.1875 -11.78125 C 2.625 -12.289062 3.179688 -12.660156 3.859375 -12.890625 C 4.546875 -13.117188 5.265625 -13.234375 6.015625 -13.234375 C 6.671875 -13.234375 7.320312 -13.148438 7.96875 -12.984375 C 8.613281 -12.828125 9.234375 -12.601562 9.828125 -12.3125 L 9.953125 -9.46875 L 9.328125 -9.46875 C 9.253906 -9.613281 9.160156 -9.851562 9.046875 -10.1875 L 8.953125 -10.484375 C 8.722656 -11.128906 8.332031 -11.617188 7.78125 -11.953125 C 7.226562 -12.296875 6.585938 -12.46875 5.859375 -12.46875 C 5.492188 -12.46875 5.117188 -12.398438 4.734375 -12.265625 C 4.359375 -12.140625 4.039062 -11.945312 3.78125 -11.6875 C 3.53125 -11.425781 3.40625 -11.101562 3.40625 -10.71875 C 3.40625 -10.363281 3.535156 -10.03125 3.796875 -9.71875 C 4.066406 -9.40625 4.394531 -9.117188 4.78125 -8.859375 C 5.175781 -8.597656 5.71875 -8.273438 6.40625 -7.890625 C 7.289062 -7.398438 8.007812 -6.96875 8.5625 -6.59375 C 9.113281 -6.21875 9.582031 -5.765625 9.96875 -5.234375 C 10.351562 -4.703125 10.546875 -4.101562 10.546875 -3.4375 C 10.546875 -2.601562 10.316406 -1.90625 9.859375 -1.34375 C 9.398438 -0.789062 8.804688 -0.382812 8.078125 -0.125 C 7.347656 0.132812 6.578125 0.265625 5.765625 0.265625 C 5.035156 0.265625 4.25 0.171875 3.40625 -0.015625 C 2.5625 -0.203125 1.878906 -0.453125 1.359375 -0.765625 L 1.359375 -3.984375 Z M 1.953125 -4.015625 "/></g></g></g><g fill="#efe9ce" fill-opacity="1"><g transform="translate(115.605058, 19.84117)"><g><path d="M 6.890625 -12.46875 C 6.617188 -12.363281 6.265625 -12.269531 5.828125 -12.1875 C 5.472656 -12.113281 5.21875 -12.03125 5.0625 -11.9375 C 4.90625 -11.851562 4.785156 -11.679688 4.703125 -11.421875 C 4.617188 -11.160156 4.578125 -10.753906 4.578125 -10.203125 L 4.578125 -5.9375 C 4.578125 -4.34375 4.898438 -3.085938 5.546875 -2.171875 C 6.191406 -1.265625 7.296875 -0.8125 8.859375 -0.8125 C 11.703125 -0.8125 13.125 -2.578125 13.125 -6.109375 L 13.125 -10.03125 C 13.125 -10.625 13.082031 -11.054688 13 -11.328125 C 12.925781 -11.597656 12.800781 -11.785156 12.625 -11.890625 C 12.445312 -11.992188 12.15625 -12.09375 11.75 -12.1875 C 11.363281 -12.289062 11.050781 -12.382812 10.8125 -12.46875 L 10.8125 -12.984375 L 16.1875 -12.984375 L 16.203125 -12.46875 C 16.097656 -12.414062 15.988281 -12.375 15.875 -12.34375 C 15.757812 -12.3125 15.609375 -12.28125 15.421875 -12.25 C 15.160156 -12.195312 14.953125 -12.148438 14.796875 -12.109375 C 14.648438 -12.066406 14.507812 -11.992188 14.375 -11.890625 C 14.25 -11.785156 14.160156 -11.644531 14.109375 -11.46875 C 14.003906 -11.101562 13.953125 -10.675781 13.953125 -10.1875 C 13.953125 -9.875 13.957031 -9.367188 13.96875 -8.671875 C 13.976562 -7.984375 13.984375 -7.46875 13.984375 -7.125 C 13.984375 -5.601562 13.851562 -4.320312 13.59375 -3.28125 C 13.332031 -2.238281 12.773438 -1.382812 11.921875 -0.71875 C 11.078125 -0.0625 9.832031 0.265625 8.1875 0.265625 C 7.226562 0.265625 6.335938 0.113281 5.515625 -0.1875 C 4.691406 -0.488281 4.007812 -0.957031 3.46875 -1.59375 C 2.925781 -2.238281 2.601562 -3.039062 2.5 -4 C 2.425781 -4.6875 2.390625 -5.5625 2.390625 -6.625 C 2.390625 -7.226562 2.394531 -7.832031 2.40625 -8.4375 C 2.425781 -9.226562 2.4375 -9.820312 2.4375 -10.21875 C 2.4375 -10.707031 2.398438 -11.085938 2.328125 -11.359375 C 2.265625 -11.617188 2.101562 -11.816406 1.84375 -11.953125 C 1.582031 -12.085938 1.226562 -12.210938 0.78125 -12.328125 C 0.5625 -12.390625 0.390625 -12.4375 0.265625 -12.46875 L 0.296875 -12.984375 L 6.875 -12.984375 Z M 6.890625 -12.46875 "/></g></g></g><g fill="#efe9ce" fill-opacity="1"><g transform="translate(135.109137, 19.84117)"><g><path d="M 2.984375 -10.3125 C 2.984375 -10.851562 2.9375 -11.242188 2.84375 -11.484375 C 2.757812 -11.734375 2.632812 -11.898438 2.46875 -11.984375 C 2.300781 -12.078125 2.035156 -12.160156 1.671875 -12.234375 C 1.210938 -12.335938 0.882812 -12.414062 0.6875 -12.46875 L 0.703125 -12.984375 L 7.453125 -12.984375 L 7.453125 -12.46875 C 7.253906 -12.382812 7.078125 -12.320312 6.921875 -12.28125 C 6.773438 -12.25 6.578125 -12.210938 6.328125 -12.171875 C 6.003906 -12.109375 5.765625 -12.039062 5.609375 -11.96875 C 5.460938 -11.894531 5.347656 -11.738281 5.265625 -11.5 C 5.179688 -11.257812 5.140625 -10.882812 5.140625 -10.375 L 5.140625 -3.109375 C 5.140625 -2.304688 5.21875 -1.75 5.375 -1.4375 C 5.53125 -1.132812 5.820312 -0.941406 6.25 -0.859375 C 6.6875 -0.773438 7.476562 -0.734375 8.625 -0.734375 C 9.351562 -0.734375 9.96875 -0.828125 10.46875 -1.015625 C 10.976562 -1.210938 11.378906 -1.59375 11.671875 -2.15625 L 11.828125 -2.46875 C 11.929688 -2.6875 12.023438 -2.867188 12.109375 -3.015625 C 12.203125 -3.160156 12.304688 -3.300781 12.421875 -3.4375 L 13.015625 -3.40625 L 12.390625 0.109375 C 11.492188 0.0351562 10.765625 0 10.203125 0 L 0.703125 0 L 0.671875 -0.53125 C 0.773438 -0.570312 0.988281 -0.640625 1.3125 -0.734375 C 1.695312 -0.828125 2 -0.921875 2.21875 -1.015625 C 2.4375 -1.117188 2.617188 -1.273438 2.765625 -1.484375 C 2.910156 -1.703125 2.984375 -2.003906 2.984375 -2.390625 Z M 2.984375 -10.3125 "/></g></g></g><g fill="#efe9ce" fill-opacity="1"><g transform="translate(149.798072, 19.84117)"><g><path d="M 4.390625 -12.25 C 3.773438 -12.25 3.289062 -12.222656 2.9375 -12.171875 C 2.695312 -12.128906 2.484375 -12.03125 2.296875 -11.875 C 2.109375 -11.726562 1.945312 -11.554688 1.8125 -11.359375 C 1.675781 -11.171875 1.507812 -10.914062 1.3125 -10.59375 C 1.113281 -10.238281 0.941406 -9.972656 0.796875 -9.796875 L 0.34375 -9.796875 L 0.59375 -13.046875 C 1.6875 -12.992188 3.101562 -12.96875 4.84375 -12.96875 L 8.71875 -12.984375 L 10.03125 -12.984375 C 11.375 -12.984375 12.460938 -13.007812 13.296875 -13.0625 L 13.609375 -9.78125 L 13.125 -9.78125 C 13.03125 -9.90625 12.925781 -10.054688 12.8125 -10.234375 C 12.707031 -10.421875 12.640625 -10.539062 12.609375 -10.59375 C 12.347656 -11.0625 12.101562 -11.425781 11.875 -11.6875 C 11.644531 -11.957031 11.375 -12.117188 11.0625 -12.171875 C 10.832031 -12.203125 10.601562 -12.222656 10.375 -12.234375 C 10.144531 -12.242188 9.859375 -12.25 9.515625 -12.25 L 7.984375 -12.25 L 7.984375 -2.40625 C 7.984375 -1.894531 8.070312 -1.515625 8.25 -1.265625 C 8.425781 -1.015625 8.660156 -0.84375 8.953125 -0.75 C 9.242188 -0.664062 9.671875 -0.585938 10.234375 -0.515625 C 10.234375 -0.285156 10.226562 -0.113281 10.21875 0 L 3.625 0 L 3.59375 -0.515625 C 3.707031 -0.554688 3.882812 -0.609375 4.125 -0.671875 C 4.519531 -0.796875 4.828125 -0.910156 5.046875 -1.015625 C 5.273438 -1.117188 5.460938 -1.28125 5.609375 -1.5 C 5.765625 -1.71875 5.84375 -2.019531 5.84375 -2.40625 L 5.84375 -12.25 Z M 4.390625 -12.25 "/></g></g></g><g fill="#efe9ce" fill-opacity="1"><g transform="translate(166.869787, 19.84117)"><g><path d="M 5.078125 -2.59375 C 5.078125 -2.082031 5.117188 -1.707031 5.203125 -1.46875 C 5.296875 -1.226562 5.421875 -1.066406 5.578125 -0.984375 C 5.734375 -0.910156 5.984375 -0.84375 6.328125 -0.78125 C 6.710938 -0.71875 7.0625 -0.632812 7.375 -0.53125 L 7.34375 0 L 0.71875 0 L 0.71875 -0.515625 C 0.90625 -0.597656 1.078125 -0.660156 1.234375 -0.703125 C 1.390625 -0.742188 1.585938 -0.78125 1.828125 -0.8125 C 2.128906 -0.851562 2.347656 -0.910156 2.484375 -0.984375 C 2.628906 -1.066406 2.738281 -1.238281 2.8125 -1.5 C 2.894531 -1.769531 2.9375 -2.191406 2.9375 -2.765625 L 2.9375 -10.265625 C 2.9375 -10.816406 2.890625 -11.21875 2.796875 -11.46875 C 2.703125 -11.726562 2.578125 -11.894531 2.421875 -11.96875 C 2.273438 -12.039062 2.054688 -12.097656 1.765625 -12.140625 C 1.523438 -12.179688 1.328125 -12.222656 1.171875 -12.265625 C 1.015625 -12.304688 0.847656 -12.375 0.671875 -12.46875 L 0.703125 -12.984375 L 7.3125 -12.984375 L 7.328125 -12.46875 C 7.191406 -12.414062 6.992188 -12.359375 6.734375 -12.296875 C 6.367188 -12.203125 6.078125 -12.109375 5.859375 -12.015625 C 5.640625 -11.921875 5.453125 -11.773438 5.296875 -11.578125 C 5.148438 -11.378906 5.078125 -11.113281 5.078125 -10.78125 Z M 5.078125 -2.59375 "/></g></g></g><g fill="#efe9ce" fill-opacity="1"><g transform="translate(178.079913, 19.84117)"><g><path d="M 3.21875 -10.875 C 3.050781 -11.15625 2.875 -11.378906 2.6875 -11.546875 C 2.5 -11.710938 2.3125 -11.835938 2.125 -11.921875 C 1.9375 -12.015625 1.6875 -12.113281 1.375 -12.21875 C 1.070312 -12.3125 0.835938 -12.394531 0.671875 -12.46875 L 0.671875 -12.984375 L 4.15625 -12.984375 L 13.546875 -3.28125 L 13.546875 -9.546875 C 13.546875 -10.179688 13.453125 -10.757812 13.265625 -11.28125 C 13.191406 -11.488281 13.09375 -11.648438 12.96875 -11.765625 C 12.84375 -11.890625 12.707031 -11.976562 12.5625 -12.03125 C 12.414062 -12.082031 12.21875 -12.140625 11.96875 -12.203125 C 11.9375 -12.210938 11.835938 -12.238281 11.671875 -12.28125 C 11.503906 -12.332031 11.359375 -12.390625 11.234375 -12.453125 C 11.234375 -12.628906 11.242188 -12.804688 11.265625 -12.984375 L 16.515625 -12.984375 L 16.515625 -12.4375 C 16.328125 -12.351562 16.132812 -12.269531 15.9375 -12.1875 C 15.445312 -11.976562 15.109375 -11.800781 14.921875 -11.65625 C 14.734375 -11.519531 14.601562 -11.300781 14.53125 -11 C 14.457031 -10.707031 14.414062 -10.226562 14.40625 -9.5625 C 14.40625 -9.21875 14.398438 -8.71875 14.390625 -8.0625 C 14.378906 -7.550781 14.367188 -6.914062 14.359375 -6.15625 C 14.359375 -5.40625 14.359375 -4.523438 14.359375 -3.515625 C 14.359375 -3.078125 14.398438 -2.425781 14.484375 -1.5625 C 14.546875 -0.832031 14.582031 -0.28125 14.59375 0.09375 C 14.46875 0.132812 14.300781 0.15625 14.09375 0.15625 C 13.882812 0.15625 13.695312 0.132812 13.53125 0.09375 C 13.050781 -0.488281 12.503906 -1.113281 11.890625 -1.78125 L 4.015625 -10.0625 L 4.015625 -3.0625 C 4.015625 -2.613281 4.070312 -2.164062 4.1875 -1.71875 C 4.238281 -1.488281 4.332031 -1.3125 4.46875 -1.1875 C 4.613281 -1.0625 4.765625 -0.972656 4.921875 -0.921875 C 5.085938 -0.867188 5.3125 -0.816406 5.59375 -0.765625 C 5.976562 -0.703125 6.265625 -0.625 6.453125 -0.53125 C 6.453125 -0.351562 6.441406 -0.175781 6.421875 0 L 0.796875 0 C 0.785156 -0.113281 0.78125 -0.289062 0.78125 -0.53125 L 1.234375 -0.65625 C 1.660156 -0.757812 2 -0.859375 2.25 -0.953125 C 2.5 -1.054688 2.710938 -1.222656 2.890625 -1.453125 C 3.078125 -1.679688 3.1875 -1.992188 3.21875 -2.390625 Z M 3.21875 -10.875 "/></g></g></g><g fill="#efe9ce" fill-opacity="1"><g transform="translate(198.431325, 19.84117)"><g><path d="M 13.828125 -0.953125 C 13.128906 -0.585938 12.328125 -0.289062 11.421875 -0.0625 C 10.515625 0.15625 9.597656 0.265625 8.671875 0.265625 C 7.171875 0.265625 5.847656 -0.0078125 4.703125 -0.5625 C 3.566406 -1.113281 2.679688 -1.890625 2.046875 -2.890625 C 1.421875 -3.890625 1.109375 -5.046875 1.109375 -6.359375 C 1.109375 -7.710938 1.46875 -8.910156 2.1875 -9.953125 C 2.90625 -10.992188 3.867188 -11.800781 5.078125 -12.375 C 6.296875 -12.945312 7.617188 -13.234375 9.046875 -13.234375 C 9.828125 -13.234375 10.546875 -13.171875 11.203125 -13.046875 C 11.859375 -12.929688 12.597656 -12.726562 13.421875 -12.4375 L 13.71875 -9.421875 C 13.507812 -9.398438 13.316406 -9.390625 13.140625 -9.390625 C 13.046875 -9.472656 12.960938 -9.578125 12.890625 -9.703125 C 12.816406 -9.828125 12.710938 -10.015625 12.578125 -10.265625 C 12.503906 -10.398438 12.429688 -10.53125 12.359375 -10.65625 C 12.285156 -10.789062 12.222656 -10.894531 12.171875 -10.96875 C 11.328125 -11.96875 10.195312 -12.46875 8.78125 -12.46875 C 7.769531 -12.46875 6.863281 -12.21875 6.0625 -11.71875 C 5.257812 -11.21875 4.628906 -10.53125 4.171875 -9.65625 C 3.722656 -8.78125 3.5 -7.804688 3.5 -6.734375 C 3.5 -5.566406 3.722656 -4.515625 4.171875 -3.578125 C 4.617188 -2.648438 5.25 -1.925781 6.0625 -1.40625 C 6.875 -0.882812 7.800781 -0.625 8.84375 -0.625 C 9.394531 -0.625 9.878906 -0.671875 10.296875 -0.765625 C 10.722656 -0.859375 11.125 -1.023438 11.5 -1.265625 C 11.582031 -1.941406 11.625 -2.785156 11.625 -3.796875 C 11.625 -4.429688 11.53125 -5.003906 11.34375 -5.515625 C 11.269531 -5.722656 11.128906 -5.867188 10.921875 -5.953125 C 10.722656 -6.035156 10.453125 -6.101562 10.109375 -6.15625 C 9.804688 -6.207031 9.59375 -6.253906 9.46875 -6.296875 C 9.46875 -6.398438 9.472656 -6.503906 9.484375 -6.609375 C 9.492188 -6.710938 9.5 -6.785156 9.5 -6.828125 L 15.46875 -6.828125 C 15.46875 -6.785156 15.472656 -6.710938 15.484375 -6.609375 C 15.492188 -6.503906 15.5 -6.398438 15.5 -6.296875 C 15.40625 -6.265625 15.304688 -6.234375 15.203125 -6.203125 C 14.890625 -6.085938 14.640625 -5.976562 14.453125 -5.875 C 14.273438 -5.78125 14.125 -5.628906 14 -5.421875 C 13.882812 -5.222656 13.828125 -4.953125 13.828125 -4.609375 Z M 13.828125 -0.953125 "/></g></g></g></g></g></svg>