<svg xmlns="http://www.w3.org/2000/svg" width="279.437" height="143.887" viewBox="0 0 279.437 143.887">
  <g id="logo_Hopla" data-name="logo Hopla" transform="translate(-269.958 -228.526)">
    <path id="Tracé_1" data-name="Tracé 1" d="M479.515,323.489V239.717a11.192,11.192,0,0,1,11.191-11.191h1.205A11.191,11.191,0,0,1,503.1,239.717v83.772a11.191,11.191,0,0,1-11.191,11.191h-1.205a11.191,11.191,0,0,1-11.191-11.191" transform="translate(-15.53 0)" fill="#423694"/>
    <path id="Tracé_2" data-name="Tracé 2" d="M540.789,313.527c-2.248,5.327-6.42,9.082-11.247,9.082-4.57,0-8.4-2.5-8.4-8.25,0-6.577,6.944-9.232,15.589-8.044a5.213,5.213,0,0,1,4.06,7.211m-7.859-51.652a58.277,58.277,0,0,0-16.473,2.4.873.873,0,0,0-.2.091,9.152,9.152,0,0,0-6.044,11.268l.274.943a9.145,9.145,0,0,0,11.373,6.172,29.967,29.967,0,0,1,7.536-1.411,18.21,18.21,0,0,1,2.9.22c6.607,1.065,5.239,11.022-1.411,10.3-17.271-1.851-33.337,7.1-33.337,23.228,0,13.123,9.141,24.625,25.649,24.625,8.437,0,16.956-5.978,22.6-5.978,6.195,0,5.285,3.62,13.85,3.62,4.557,0,6.3-2.33,6.3-5.206V298.14c0-26.547-15.769-36.266-33.023-36.266" transform="translate(-16.558 -2.682)" fill="#fccf00"/>
    <path id="Tracé_3" data-name="Tracé 3" d="M456.646,300.978c0-9.73-6.79-17.694-15.336-17.694s-15.329,7.957-15.329,17.694,6.778,17.687,15.329,17.687,15.329-7.962,15.336-17.687m23.586,0c0,21.524-14.6,38.917-34.056,38.917a27.379,27.379,0,0,1-5.9-.637,11.824,11.824,0,0,0-14.291,11.6v12.624a11.794,11.794,0,0,1-23.588,0V276.205a11.794,11.794,0,0,1,11.794-11.794h1.43c7.471,0,7.471,1.717,13.666,1.717,5.1,0,6.195-2,16.892-2,19.461,0,34.056,15.324,34.056,36.86" transform="translate(-9.588 -2.861)" fill="#a64acc"/>
    <path id="Tracé_4" data-name="Tracé 4" d="M386.262,300.8c0-9.731-6.79-17.694-15.336-17.694S355.6,291.06,355.6,300.8s6.778,17.687,15.329,17.687,15.329-7.962,15.336-17.687m23.586,0a38.6,38.6,0,0,1-38.922,38.917c-23,0-38.922-17.391-38.922-38.917s15.631-38.924,38.922-38.924A38.7,38.7,0,0,1,409.848,300.8" transform="translate(-4.491 -2.681)" fill="#0aded6"/>
    <path id="Tracé_5" data-name="Tracé 5" d="M340.717,292.216v30.666a11.794,11.794,0,1,1-23.588,0v-28.31c0-11.792-6.637-14.157-11.792-14.157-4.866,0-11.794,4.426-11.794,16.515v25.951a11.794,11.794,0,0,1-11.792,11.794h0a11.793,11.793,0,0,1-11.792-11.792V240.319a11.792,11.792,0,0,1,11.792-11.792h0a11.792,11.792,0,0,1,11.792,11.792v7.7a11.84,11.84,0,0,0,14.147,11.652,23.212,23.212,0,0,1,4.716-.475c14.89,0,28.309,10.91,28.293,33.024" transform="translate(0 -0.001)" fill="#fc6926"/>
    <path id="Tracé_6" data-name="Tracé 6" d="M346.9,297.471h0m0,.175h0m0,30.771h0m0,.113h0m0,.038h0" transform="translate(-5.747 -5.544)"/>
    <path id="Tracé_7" data-name="Tracé 7" d="M340.973,276.384A39.532,39.532,0,0,0,332,301.963a38.854,38.854,0,0,0,12.77,29.372,11.746,11.746,0,0,0,.933-4.452h0v-31.11a38.451,38.451,0,0,0-4.737-19.386" transform="translate(-4.617 -3.848)"/>
    <path id="Tracé_8" data-name="Tracé 8" d="M416.606,301.969h0m0,.063h0m0,.063h0m0,.066h0m0,.063h0m0,.065h0m0,.065h0m0,.066h0m0,.061h0m0,.068h0m0,.065h0m0,.07h0m0,.07h0m0,.138h0m0,.065h0m0,.063h0m0,.065v0m0,.065h0m0,.066h0m0,.063v0m0,.065h0m0,.063h0m0,.066h0m0,.063h0m0,.066v0m0,.065h0m0,.066h0m0,.061h0m0,.066h0m0,.066h0m0,.159h0m0,.066h0m0,.066h0m0,.065h0m0,.066h0m0,.065h0m0,.065h0m0,.068h0m0,.07h0m0,.068h0m0,.073h0m0,.147h0m0,.066h0m0,.065h0m0,.068h0m0,.066h0m0,.066h0m0,.068h0m0,.073h0m0,.072Zm-.014.341Zm0,.066h0m0,.068h0m0,.066h0" transform="translate(-10.951 -5.905)"/>
    <path id="Tracé_9" data-name="Tracé 9" d="M403.055,273.03a11.751,11.751,0,0,0-.662,3.891V331a38.751,38.751,0,0,0,13.067-27.331h0v-.065h0v-.133h0c0-.113.01-.225.014-.339h0v-.065h0v-.641a.5.5,0,0,1,0-.051v-.229a.231.231,0,0,0,0-.035v-1.1a.208.208,0,0,1,0-.035c0-.01,0-.019,0-.03v-.508h0v-.07c0-.017,0-.035,0-.052V300.1a.419.419,0,0,0,0-.047v-.414h0a38.8,38.8,0,0,0-12.4-26.613" transform="translate(-9.848 -3.579)"/>
    <path id="Tracé_10" data-name="Tracé 10" d="M487.03,303.632h0m0,.107h0m0,.2h0m0,.107h0m0,.206h0m0,.108h0m0,.21h0m0,.106h0m0,.21h0m0,.11h0m0,.21h0m0,.1h0" transform="translate(-16.198 -6.04)"/>
    <path id="Tracé_11" data-name="Tracé 11" d="M479.52,279.143v46.87a42.768,42.768,0,0,0,6.905-22.669h0v-.1h0v-.2h0v-1.254h0v-.1h0a39.337,39.337,0,0,0-6.916-22.519" transform="translate(-15.616 -4.07)"/>
    <path id="Tracé_12" data-name="Tracé 12" d="M497.558,318.747h0m0,.077h0m0,.223h0m0,.075h0m0,.079h0m0,.079h0m0,.072h0m0,.075h0m0,.079h0m0,.079h0m0,.08h0m0,.1h0m0,.08h0m0,.075v0m0,.075v0m0,.075h0m0,.075v0m0,.073v0m0,.075v0m0,.073h0m0,.075a.268.268,0,0,0,0,.03.268.268,0,0,1,0-.03m0,.075h0m.012.349Zm0,.066h0m0,.071h0m0,.072h0m0,.073h0" transform="translate(-16.981 -7.254)"/>
    <path id="Tracé_13" data-name="Tracé 13" d="M504.544,302.454a20.889,20.889,0,0,0-6.986,14.981h0v.073h0v.222h0v.224h0v.068h0V319.2a3.05,3.05,0,0,0,.012.335h0v.065h0v.063h0v.065h0v.065h0a24.563,24.563,0,0,0,5.7,14.749,11.136,11.136,0,0,0,1.266-5.17Z" transform="translate(-16.947 -5.944)"/>
    <path id="Tracé_14" data-name="Tracé 14" d="M482.374,377.6a2.344,2.344,0,0,1-2.349-2.349,2.22,2.22,0,0,1,.686-1.626,2.27,2.27,0,0,1,1.663-.686,2.345,2.345,0,0,1,2.312,2.312,2.27,2.27,0,0,1-.686,1.663,2.227,2.227,0,0,1-1.626.686" transform="translate(-15.659 -11.61)" fill="#fff"/>
    <path id="Tracé_15" data-name="Tracé 15" d="M488.281,364.611a6.879,6.879,0,0,1,7.229-7.229,11.4,11.4,0,0,1,5.025,1.156,1.858,1.858,0,0,1,.777.7,1.837,1.837,0,0,1,.271.959,1.628,1.628,0,0,1-.506,1.191,1.711,1.711,0,0,1-1.264.506,1.46,1.46,0,0,1-.47-.073c-.145-.047-.278-.1-.4-.145a12.629,12.629,0,0,0-1.663-.615,6.313,6.313,0,0,0-1.771-.251A3.2,3.2,0,0,0,492,364.314v5.133a3.481,3.481,0,0,0,.922,2.6,3.535,3.535,0,0,0,2.585.9,6.849,6.849,0,0,0,1.825-.253,9.273,9.273,0,0,0,1.717-.65,1.617,1.617,0,0,1,.795-.175,1.728,1.728,0,0,1,1.212.489,1.629,1.629,0,0,1,.524,1.247,1.747,1.747,0,0,1-.288.957,1.964,1.964,0,0,1-.795.7,11.3,11.3,0,0,1-4.986,1.156,6.883,6.883,0,0,1-7.229-7.264Z" transform="translate(-16.236 -10.364)" fill="#fff"/>
    <path id="Tracé_16" data-name="Tracé 16" d="M506.473,349a1.851,1.851,0,0,1,1.879-1.879,1.775,1.775,0,0,1,1.3.543,1.818,1.818,0,0,1,.543,1.338v24.72a1.817,1.817,0,0,1-.543,1.338,1.77,1.77,0,0,1-1.3.543,1.852,1.852,0,0,1-1.879-1.879Z" transform="translate(-17.635 -9.534)" fill="#fff"/>
    <path id="Tracé_17" data-name="Tracé 17" d="M526.42,360.4a3.86,3.86,0,0,0-1.03-2.794,3.764,3.764,0,0,0-2.836-1.065,3.519,3.519,0,0,0-3.867,3.867v8.518a3.8,3.8,0,0,0,1.011,2.836,4.6,4.6,0,0,0,5.711,0,3.8,3.8,0,0,0,1.011-2.836Zm3.722,8.191a7.594,7.594,0,1,1-15.179,0v-7.9a7.594,7.594,0,1,1,15.179,0Z" transform="translate(-17.961 -10.12)" fill="#fff"/>
    <path id="Tracé_18" data-name="Tracé 18" d="M546.324,347.848a1.849,1.849,0,0,1,.524-1.338,1.747,1.747,0,0,1,1.318-.541,1.852,1.852,0,0,1,1.879,1.879v24.515a2.247,2.247,0,0,1-.433,1.355,2.349,2.349,0,0,1-1.156.849,17.208,17.208,0,0,1-5.674.94,8.94,8.94,0,0,1-2.945-.47,6.147,6.147,0,0,1-2.366-1.481,6.03,6.03,0,0,1-1.446-2.331,9.036,9.036,0,0,1-.47-2.981V353.5a1.849,1.849,0,0,1,1.879-1.879,1.772,1.772,0,0,1,1.3.541,1.818,1.818,0,0,1,.543,1.338v15.034a3.482,3.482,0,0,0,.922,2.6,3.534,3.534,0,0,0,2.585.9,14.239,14.239,0,0,0,3.542-.435Z" transform="translate(-19.616 -9.443)" fill="#fff"/>
    <path id="Tracé_19" data-name="Tracé 19" d="M566.332,361.5a5.275,5.275,0,0,0-3.542-1.3,3.2,3.2,0,0,0-3.505,3.505v5.169a3.481,3.481,0,0,0,.922,2.6,3.536,3.536,0,0,0,2.583.9,12.7,12.7,0,0,0,3.542-.47Zm-10.769,2.494a8.481,8.481,0,0,1,.489-2.929,6.258,6.258,0,0,1,1.464-2.312,6.37,6.37,0,0,1,2.349-1.5,8.492,8.492,0,0,1,2.927-.487,6.74,6.74,0,0,1,1.879.271,8.1,8.1,0,0,1,1.661.669v-6.071a1.851,1.851,0,0,1,.524-1.338,1.757,1.757,0,0,1,1.32-.541,1.85,1.85,0,0,1,1.879,1.879v21.033a2.251,2.251,0,0,1-.433,1.355,2.358,2.358,0,0,1-1.156.849,17.418,17.418,0,0,1-5.675.94,6.883,6.883,0,0,1-7.229-7.264Z" transform="translate(-21.228 -9.747)" fill="#fff"/>
  </g>
</svg>
